# xmcd
#
# Track frame offsets:
#	182
#	14985
#	26265
#	37687
#	48090
#	60442
#	75357
#	89987
#	102557
#	116350
#
# Disc length: 1704 seconds
#
# Revision: 1
# Processed by: cddbd v1.5.1PL0 Copyright (c) Steve Scherf et al.
# Submitted via: audiograbber 1.83.01
#
DISCID=7206a60a
DTITLE=Ella Fitzgerald - The Best Of Ella Fitzgerald
DYEAR=1993
DGENRE=Jazz
TTITLE0=Born To Lose
TTITLE1=Misty Blue
TTITLE2=Walking In The Sunshine
TTITLE3=Evil On Your Mind
TTITLE4=Turn The World Around
TTITLE5=In The Garden
TTITLE6=Throw Out The Lifeline
TTITLE7=I Shall Not Be Moved
TTITLE8=Church In The Wildwood
TTITLE9=Brighten The Corner
EXTD=YEAR: 1993
EXTT0=
EXTT1=
EXTT2=
EXTT3=
EXTT4=
EXTT5=
EXTT6=
EXTT7=
EXTT8=
EXTT9=
PLAYORDER=
